# xmcd
#
# Track frame offsets:
#	150
#	19254
#	37309
#	55422
#	73727
#	87845
#	101657
#	118978
#	133534
#	150706
#	167216
#	182108
#	194513
#	212654
#	230619
#	245304
#	263520
#
# Disc length: 3733 seconds
#
# Revision: 1
# Processed by: cddbd v1.5.1PL2 Copyright (c) Steve Scherf et al.
# Submitted via: audiograbber 1.83.01
#
DISCID=fa0e9311
DTITLE=Various Artist - ERG Nu Country Traxx Vol. 29
DYEAR=2001
DGENRE=Country
TTITLE0=Lonestar - I'm Already There
TTITLE1=Alan Jackson - Where I Come From
TTITLE2=Shannon Brown - Baby I Lied
TTITLE3=Chris Cagle - I Breathe In, I Breathe Out
TTITLE4=Brad Paisley - Wrapped Around
TTITLE5=Toby Keith - I Wanna Talk About Me
TTITLE6=Montgomery Gentry - Cold One Comin' On
TTITLE7=Jeffrey Steele - Somethin' In The Water
TTITLE8=Tracy Byrd - Just Let Me Be In Love
TTITLE9=Chad Brock - Tell Me How
TTITLE10=Steve Azar - I Don't Have To Be Me (Til Monday)
TTITLE11=Darryl Worley - Sideways
TTITLE12=Rascal Flatts - I'm Movin' On
TTITLE13=Confederate Railroad - That's What Brothers Do
TTITLE14=Blake Shelton - All Over Me
TTITLE15=K.T. Oslin - Drivin', Cryin', Missin' You
TTITLE16=Sara Evans - Saints and Angels
EXTD=
EXTT0=
EXTT1=
EXTT2=
EXTT3=
EXTT4=
EXTT5=
EXTT6=
EXTT7=
EXTT8=
EXTT9=
EXTT10=
EXTT11=
EXTT12=
EXTT13=
EXTT14=
EXTT15=
EXTT16=
PLAYORDER=
